 <svg xmlns="http://www.w3.org/2000/svg" id="svg" width="800" height="400">
<g>
<g fill="#1f77b4">
<rect width="27" x="130" y="58" height="262"/>
<rect width="27" x="183" y="74" height="246"/>
<rect width="27" x="236" y="30" height="290"/>
<rect width="27" x="289" y="71" height="249"/>
<rect width="27" x="342" y="54" height="266"/>
<rect width="27" x="395" y="75" height="245"/>
<rect width="27" x="448" y="112" height="208"/>
<rect width="27" x="501" y="84" height="236"/>
<rect width="27" x="554" y="57" height="263"/>
<rect width="27" x="607" y="42" height="278"/>
<rect width="27" x="660" y="83" height="237"/>
<rect width="27" x="713" y="103" height="217"/>
</g>
<g fill="#1f77b4">
<rect width="27" x="130" y="58" height="262"/>
<rect width="27" x="183" y="74" height="246"/>
<rect width="27" x="236" y="30" height="290"/>
<rect width="27" x="289" y="71" height="249"/>
<rect width="27" x="342" y="54" height="266"/>
<rect width="27" x="395" y="75" height="245"/>
<rect width="27" x="448" y="112" height="208"/>
<rect width="27" x="501" y="84" height="236"/>
<rect width="27" x="554" y="57" height="263"/>
<rect width="27" x="607" y="42" height="278"/>
<rect width="27" x="660" y="83" height="237"/>
<rect width="27" x="713" y="103" height="217"/>
</g>
<g fill="#1f77b4">
<rect width="27" x="130" y="58" height="262"/>
<rect width="27" x="183" y="74" height="246"/>
<rect width="27" x="236" y="30" height="290"/>
<rect width="27" x="289" y="71" height="249"/>
<rect width="27" x="342" y="54" height="266"/>
<rect width="27" x="395" y="75" height="245"/>
<rect width="27" x="448" y="112" height="208"/>
<rect width="27" x="501" y="84" height="236"/>
<rect width="27" x="554" y="57" height="263"/>
<rect width="27" x="607" y="42" height="278"/>
<rect width="27" x="660" y="83" height="237"/>
<rect width="27" x="713" y="103" height="217"/>
</g>
<g fill="#1f77b4">
<rect width="27" x="130" y="58" height="262"/>
<rect width="27" x="183" y="74" height="246"/>
<rect width="27" x="236" y="30" height="290"/>
<rect width="27" x="289" y="71" height="249"/>
<rect width="27" x="342" y="54" height="266"/>
<rect width="27" x="395" y="75" height="245"/>
<rect width="27" x="448" y="112" height="208"/>
<rect width="27" x="501" y="84" height="236"/>
<rect width="27" x="554" y="57" height="263"/>
<rect width="27" x="607" y="42" height="278"/>
<rect width="27" x="660" y="83" height="237"/>
<rect width="27" x="713" y="103" height="217"/>
</g>
<g fill="#1f77b4">
<rect width="27" x="130" y="58" height="262"/>
<rect width="27" x="183" y="74" height="246"/>
<rect width="27" x="236" y="30" height="290"/>
<rect width="27" x="289" y="71" height="249"/>
<rect width="27" x="342" y="54" height="266"/>
<rect width="27" x="395" y="75" height="245"/>
<rect width="27" x="448" y="112" height="208"/>
<rect width="27" x="501" y="84" height="236"/>
<rect width="27" x="554" y="57" height="263"/>
<rect width="27" x="607" y="42" height="278"/>
<rect width="27" x="660" y="83" height="237"/>
<rect width="27" x="713" y="103" height="217"/>
</g>
<g fill="#1f77b4">
<rect width="27" x="130" y="58" height="262"/>
<rect width="27" x="183" y="74" height="246"/>
<rect width="27" x="236" y="30" height="290"/>
<rect width="27" x="289" y="71" height="249"/>
<rect width="27" x="342" y="54" height="266"/>
<rect width="27" x="395" y="75" height="245"/>
<rect width="27" x="448" y="112" height="208"/>
<rect width="27" x="501" y="84" height="236"/>
<rect width="27" x="554" y="57" height="263"/>
<rect width="27" x="607" y="42" height="278"/>
<rect width="27" x="660" y="83" height="237"/>
<rect width="27" x="713" y="103" height="217"/>
</g>
<g fill="#1f77b4">
<rect width="27" x="130" y="58" height="262"/>
<rect width="27" x="183" y="74" height="246"/>
<rect width="27" x="236" y="30" height="290"/>
<rect width="27" x="289" y="71" height="249"/>
<rect width="27" x="342" y="54" height="266"/>
<rect width="27" x="395" y="75" height="245"/>
<rect width="27" x="448" y="112" height="208"/>
<rect width="27" x="501" y="84" height="236"/>
<rect width="27" x="554" y="57" height="263"/>
<rect width="27" x="607" y="42" height="278"/>
<rect width="27" x="660" y="83" height="237"/>
<rect width="27" x="713" y="103" height="217"/>
</g>
<g fill="#1f77b4">
<rect width="27" x="130" y="58" height="262"/>
<rect width="27" x="183" y="74" height="246"/>
<rect width="27" x="236" y="30" height="290"/>
<rect width="27" x="289" y="71" height="249"/>
<rect width="27" x="342" y="54" height="266"/>
<rect width="27" x="395" y="75" height="245"/>
<rect width="27" x="448" y="112" height="208"/>
<rect width="27" x="501" y="84" height="236"/>
<rect width="27" x="554" y="57" height="263"/>
<rect width="27" x="607" y="42" height="278"/>
<rect width="27" x="660" y="83" height="237"/>
<rect width="27" x="713" y="103" height="217"/>
</g>
<g fill="#1f77b4">
<rect width="27" x="130" y="58" height="262"/>
<rect width="27" x="183" y="74" height="246"/>
<rect width="27" x="236" y="30" height="290"/>
<rect width="27" x="289" y="71" height="249"/>
<rect width="27" x="342" y="54" height="266"/>
<rect width="27" x="395" y="75" height="245"/>
<rect width="27" x="448" y="112" height="208"/>
<rect width="27" x="501" y="84" height="236"/>
<rect width="27" x="554" y="57" height="263"/>
<rect width="27" x="607" y="42" height="278"/>
<rect width="27" x="660" y="83" height="237"/>
<rect width="27" x="713" y="103" height="217"/>
</g>
<g fill="#1f77b4">
<rect width="27" x="130" y="58" height="262"/>
<rect width="27" x="183" y="74" height="246"/>
<rect width="27" x="236" y="30" height="290"/>
<rect width="27" x="289" y="71" height="249"/>
<rect width="27" x="342" y="54" height="266"/>
<rect width="27" x="395" y="75" height="245"/>
<rect width="27" x="448" y="112" height="208"/>
<rect width="27" x="501" y="84" height="236"/>
<rect width="27" x="554" y="57" height="263"/>
<rect width="27" x="607" y="42" height="278"/>
<rect width="27" x="660" y="83" height="237"/>
<rect width="27" x="713" y="103" height="217"/>
</g>
<g fill="#1f77b4">
<rect width="27" x="130" y="58" height="262"/>
<rect width="27" x="183" y="74" height="246"/>
<rect width="27" x="236" y="30" height="290"/>
<rect width="27" x="289" y="71" height="249"/>
<rect width="27" x="342" y="54" height="266"/>
<rect width="27" x="395" y="75" height="245"/>
<rect width="27" x="448" y="112" height="208"/>
<rect width="27" x="501" y="84" height="236"/>
<rect width="27" x="554" y="57" height="263"/>
<rect width="27" x="607" y="42" height="278"/>
<rect width="27" x="660" y="83" height="237"/>
<rect width="27" x="713" y="103" height="217"/>
</g>
<g fill="#1f77b4">
<rect width="27" x="130" y="58" height="262"/>
<rect width="27" x="183" y="74" height="246"/>
<rect width="27" x="236" y="30" height="290"/>
<rect width="27" x="289" y="71" height="249"/>
<rect width="27" x="342" y="54" height="266"/>
<rect width="27" x="395" y="75" height="245"/>
<rect width="27" x="448" y="112" height="208"/>
<rect width="27" x="501" y="84" height="236"/>
<rect width="27" x="554" y="57" height="263"/>
<rect width="27" x="607" y="42" height="278"/>
<rect width="27" x="660" y="83" height="237"/>
<rect width="27" x="713" y="103" height="217"/>
</g>
</g>
<g transform="translate(0,320)" fill="none" font-size="10" font-family="sans-serif" text-anchor="middle">
<path class="domain" stroke="#000" d="M100.5,6V0.5H770.5V6"/>
<g class="tick" opacity="1" transform="translate(144,0)">
<line stroke="#000" y2="6" x1="0.5" x2="0.5"/>
<text fill="#000" y="9" x="0.5" dy="0.71em" transform="rotate(45 -10 10)" style="text-anchor: start;">A_1</text>
</g>
<g class="tick" opacity="1" transform="translate(197,0)">
<line stroke="#000" y2="6" x1="0.5" x2="0.5"/>
<text fill="#000" y="9" x="0.5" dy="0.71em" transform="rotate(45 -10 10)" style="text-anchor: start;">A_2</text>
</g>
<g class="tick" opacity="1" transform="translate(250,0)">
<line stroke="#000" y2="6" x1="0.5" x2="0.5"/>
<text fill="#000" y="9" x="0.5" dy="0.71em" transform="rotate(45 -10 10)" style="text-anchor: start;">A_3</text>
</g>
<g class="tick" opacity="1" transform="translate(303,0)">
<line stroke="#000" y2="6" x1="0.5" x2="0.5"/>
<text fill="#000" y="9" x="0.5" dy="0.71em" transform="rotate(45 -10 10)" style="text-anchor: start;">B_1</text>
</g>
<g class="tick" opacity="1" transform="translate(356,0)">
<line stroke="#000" y2="6" x1="0.5" x2="0.5"/>
<text fill="#000" y="9" x="0.5" dy="0.71em" transform="rotate(45 -10 10)" style="text-anchor: start;">B_2</text>
</g>
<g class="tick" opacity="1" transform="translate(409,0)">
<line stroke="#000" y2="6" x1="0.5" x2="0.5"/>
<text fill="#000" y="9" x="0.5" dy="0.71em" transform="rotate(45 -10 10)" style="text-anchor: start;">B_3</text>
</g>
<g class="tick" opacity="1" transform="translate(462,0)">
<line stroke="#000" y2="6" x1="0.5" x2="0.5"/>
<text fill="#000" y="9" x="0.5" dy="0.71em" transform="rotate(45 -10 10)" style="text-anchor: start;">B_4</text>
</g>
<g class="tick" opacity="1" transform="translate(515,0)">
<line stroke="#000" y2="6" x1="0.5" x2="0.5"/>
<text fill="#000" y="9" x="0.5" dy="0.71em" transform="rotate(45 -10 10)" style="text-anchor: start;">Normal_1</text>
</g>
<g class="tick" opacity="1" transform="translate(568,0)">
<line stroke="#000" y2="6" x1="0.5" x2="0.5"/>
<text fill="#000" y="9" x="0.5" dy="0.71em" transform="rotate(45 -10 10)" style="text-anchor: start;">Normal_2</text>
</g>
<g class="tick" opacity="1" transform="translate(621,0)">
<line stroke="#000" y2="6" x1="0.5" x2="0.5"/>
<text fill="#000" y="9" x="0.5" dy="0.71em" transform="rotate(45 -10 10)" style="text-anchor: start;">Normal_3</text>
</g>
<g class="tick" opacity="1" transform="translate(674,0)">
<line stroke="#000" y2="6" x1="0.5" x2="0.5"/>
<text fill="#000" y="9" x="0.5" dy="0.71em" transform="rotate(45 -10 10)" style="text-anchor: start;">Normal_4</text>
</g>
<g class="tick" opacity="1" transform="translate(727,0)">
<line stroke="#000" y2="6" x1="0.5" x2="0.5"/>
<text fill="#000" y="9" x="0.5" dy="0.71em" transform="rotate(45 -10 10)" style="text-anchor: start;">Normal_5</text>
</g>
</g>
<g transform="translate(100,0)" fill="none" font-size="10" font-family="sans-serif" text-anchor="end">
<path class="domain" stroke="#000" d="M-6,320.5H0.5V30.5H-6"/>
<g class="tick" opacity="1" transform="translate(0,320)">
<line stroke="#000" x2="-6" y1="0.5" y2="0.5"/>
<text fill="#000" x="-9" y="0.5" dy="0.32em">0</text>
</g>
<g class="tick" opacity="1" transform="translate(0,294)">
<line stroke="#000" x2="-6" y1="0.5" y2="0.5"/>
<text fill="#000" x="-9" y="0.5" dy="0.32em">5,000</text>
</g>
<g class="tick" opacity="1" transform="translate(0,268)">
<line stroke="#000" x2="-6" y1="0.5" y2="0.5"/>
<text fill="#000" x="-9" y="0.5" dy="0.32em">10,000</text>
</g>
<g class="tick" opacity="1" transform="translate(0,242)">
<line stroke="#000" x2="-6" y1="0.5" y2="0.5"/>
<text fill="#000" x="-9" y="0.5" dy="0.32em">15,000</text>
</g>
<g class="tick" opacity="1" transform="translate(0,216)">
<line stroke="#000" x2="-6" y1="0.5" y2="0.5"/>
<text fill="#000" x="-9" y="0.5" dy="0.32em">20,000</text>
</g>
<g class="tick" opacity="1" transform="translate(0,189)">
<line stroke="#000" x2="-6" y1="0.5" y2="0.5"/>
<text fill="#000" x="-9" y="0.5" dy="0.32em">25,000</text>
</g>
<g class="tick" opacity="1" transform="translate(0,163)">
<line stroke="#000" x2="-6" y1="0.5" y2="0.5"/>
<text fill="#000" x="-9" y="0.5" dy="0.32em">30,000</text>
</g>
<g class="tick" opacity="1" transform="translate(0,137)">
<line stroke="#000" x2="-6" y1="0.5" y2="0.5"/>
<text fill="#000" x="-9" y="0.5" dy="0.32em">35,000</text>
</g>
<g class="tick" opacity="1" transform="translate(0,111)">
<line stroke="#000" x2="-6" y1="0.5" y2="0.5"/>
<text fill="#000" x="-9" y="0.5" dy="0.32em">40,000</text>
</g>
<g class="tick" opacity="1" transform="translate(0,85)">
<line stroke="#000" x2="-6" y1="0.5" y2="0.5"/>
<text fill="#000" x="-9" y="0.5" dy="0.32em">45,000</text>
</g>
<g class="tick" opacity="1" transform="translate(0,59)">
<line stroke="#000" x2="-6" y1="0.5" y2="0.5"/>
<text fill="#000" x="-9" y="0.5" dy="0.32em">50,000</text>
</g>
<g class="tick" opacity="1" transform="translate(0,33)">
<line stroke="#000" x2="-6" y1="0.5" y2="0.5"/>
<text fill="#000" x="-9" y="0.5" dy="0.32em">55,000</text>
</g>
<text fill="#000" transform="translate(0, 25)" style="font-size: 16px;">AE</text>
</g>
</svg>