<svg id="图层_1" data-name="图层 1" xmlns="http://www.w3.org/2000/svg" viewBox="0 0 1920 1080"><defs><style>.cls-1{fill:#9f9fa0;}.cls-2{fill:#dab866;}.cls-3{fill:#595757;}</style></defs><title>易点基因-SVG</title><path class="cls-1" d="M326.09,337H606a0,0,0,0,1,0,0v4.05a25.41,25.41,0,0,1-25.41,25.41H300.67a0,0,0,0,1,0,0v-4.05A25.41,25.41,0,0,1,326.09,337Z" transform="translate(36.55 -42.63) rotate(5.61)"/><path class="cls-1" d="M274.28,223.18h235a28.6,28.6,0,0,1,28.6,28.6v.86a0,0,0,0,1,0,0H247.69a0,0,0,0,1,0,0v-2.87A26.59,26.59,0,0,1,274.28,223.18Z" transform="translate(25.14 -37.26) rotate(5.61)"/><path class="cls-2" d="M247.42,729.85H527.33a0,0,0,0,1,0,0v4.05a25.41,25.41,0,0,1-25.41,25.41H222a0,0,0,0,1,0,0v-4.05A25.41,25.41,0,0,1,247.42,729.85Z" transform="matrix(0.99, 0.14, -0.14, 0.99, 108.47, -45.3)"/><path class="cls-2" d="M194.92,631.66h235a28.6,28.6,0,0,1,28.6,28.6v.86a0,0,0,0,1,0,0H168.32a0,0,0,0,1,0,0v-2.87A26.59,26.59,0,0,1,194.92,631.66Z" transform="matrix(0.99, 0.14, -0.14, 0.99, 94.04, -37.66)"/><path class="cls-1" d="M373.39,916.61c33.2-21.26,62.88-47.31,86.37-77.11a218.23,218.23,0,0,0,28.88-47.68c7.11-16.83,11.92-34.31,13.13-52,3.09-35.4-7.41-70.53-24.51-102.48-17.39-32-41-61.29-67.29-88.33s-55.27-52.08-85.57-75.65c-31.71-24.34-63.87-53.84-85.54-91.82-10.78-19-19.05-40.16-22-62.58a138.26,138.26,0,0,1,7-66.06,153.39,153.39,0,0,1,34-53.64,178.43,178.43,0,0,1,49-35.87C293.24,178,281.28,193.49,272,210s-16,33.68-19,51a118.65,118.65,0,0,0,2.28,50.76c4.34,16.29,12,31.76,21.86,46.19a202.26,202.26,0,0,0,16.23,21Q302.12,389,312,398.5c6.6,6.28,13.41,12.46,20.49,18.41,3.51,3,7.16,5.89,10.79,8.78l5.52,4.28,5.91,4.7c15.87,12.36,31.23,25.5,46.38,38.9q22.45,20.5,43.36,43c27.54,30.16,52.66,63.65,70.66,102a249.63,249.63,0,0,1,19.54,60.91,205.43,205.43,0,0,1,2.95,32.33,191.62,191.62,0,0,1-2.65,32.4,184.08,184.08,0,0,1-21.92,60c-10.46,18.34-23.78,34.49-38.38,48.78A285.72,285.72,0,0,1,426.8,890.1,281.76,281.76,0,0,1,373.39,916.61Z"/><path class="cls-1" d="M143.49,613.56c4.65-6.14,9.51-12.13,14.43-18.13,5.19-5.69,10.24-11.61,15.69-17.13s10.9-11.11,16.72-16.29c2.87-2.64,5.77-5.26,8.73-7.82l9-7.48c6-5.08,12.48-9.48,18.75-14.28,6.51-4.4,13-9,19.76-13a385.49,385.49,0,0,1,41.76-22.55,445.33,445.33,0,0,1,43.94-17.72c14.82-5.29,29.85-9.67,44.72-13.81s29.69-7.72,44.17-11.59,28.75-7.42,42.45-11.81a317.84,317.84,0,0,0,39.55-14.8,231.44,231.44,0,0,0,35.92-19.94,153.66,153.66,0,0,0,15.7-11.89c2.27-2.2,4.69-4.3,6.9-6.54s4.33-4.58,6.33-7a106,106,0,0,0,18.26-33c8.5-24.48,8.61-53.28,3.81-81.92-4.7-28.81-13.81-57.69-25.55-86.11A210.92,210.92,0,0,1,579.4,198.6c4.57,6.27,8.86,12.77,13,19.41a250.23,250.23,0,0,1,21,42.41,204.67,204.67,0,0,1,12.08,47.24,155.82,155.82,0,0,1-1.81,51A134.83,134.83,0,0,1,603,407.48c-2.51,3.69-5.32,7.14-8,10.72s-6,6.55-9,9.83a198.43,198.43,0,0,1-19.54,17,256.85,256.85,0,0,1-42.63,26.13,350.13,350.13,0,0,1-45.56,17.77c-30.68,9.37-60.86,15.32-90.13,21.65s-57.73,13.05-85.54,22.15c-13.87,4.58-27.66,9.53-41.17,15.3-6.88,2.65-13.41,6-20.23,8.91-6.59,3.31-13.4,6.33-19.91,9.91L211.38,572l-9.77,5.51c-6.64,3.53-12.94,7.61-19.52,11.38C169.11,596.69,156.48,605.18,143.49,613.56Z"/><path class="cls-3" d="M1704.52,675.07c1-6.55,1.89-9.65,4.31-14,5.17-9.65,13.95-15,24.46-15,8.27,0,15,2.58,20.33,7.75,5.51,5.34,8.09,11.54,9.13,21.19Zm72,10.85c-.35-4.65-1-11.37-1.21-13.26-3.44-23.08-19.46-37.37-41.68-37.37-25.84,0-42.72,19.29-42.72,48.74,0,29.8,17.05,48.74,44.09,48.74,12.57,0,23.08-4.13,31.17-12.06,4-4,6.2-7.06,9.47-14.29l-12.05-4.82c-4.82,13.26-14.47,20.15-28.42,20.15-10.33,0-18.77-4.13-24.28-11.71-4.65-6.2-6.37-12.57-6.89-24.11Zm-183.71,44.44a138.92,138.92,0,0,1-1.2-19.46V677.65c1.38-6.89,3.44-11.2,7.92-17.05,7.24-9.3,15-13.61,24.63-13.61,13.6,0,21,8.27,21,23.77v40.13a139.12,139.12,0,0,1-1.21,19.46h15.5a116.83,116.83,0,0,1-1.21-19.29V668.52c0-8.44-1.55-14.81-4.82-19.8-5.51-8.44-15.16-12.92-27.56-12.92-15.5,0-26.69,6.72-34.79,20.84a46.24,46.24,0,0,0,.52-7.4V637.52h-14.29a116.66,116.66,0,0,1,1.38,19.46v53.91a110.19,110.19,0,0,1-1.38,19.46Zm-118.94-55.29c1-6.55,1.89-9.65,4.31-14,5.17-9.65,13.95-15,24.46-15,8.27,0,15,2.58,20.33,7.75,5.51,5.34,8.09,11.54,9.13,21.19Zm72,10.85c-.35-4.65-1-11.37-1.21-13.26-3.44-23.08-19.46-37.37-41.68-37.37-25.84,0-42.72,19.29-42.72,48.74,0,29.8,17.05,48.74,44.09,48.74,12.57,0,23.08-4.13,31.17-12.06,4-4,6.2-7.06,9.47-14.29l-12.05-4.82c-4.82,13.26-14.47,20.15-28.42,20.15-10.33,0-18.77-4.13-24.28-11.71-4.65-6.2-6.37-12.57-6.89-24.11Zm-130.48-9.47v34.62c-10.16,6.55-21.19,9.64-34.79,9.64s-24.29-4.13-32-12.4c-9.47-10.16-14.47-25.32-14.47-43.74,0-34.62,17.39-55.8,45.81-55.8,18.43,0,30,7.92,36.17,24.8l13.43-4.48c-3.79-9.3-6.89-14.29-12.57-19.64-9.13-8.44-21.53-12.74-36.86-12.74-36.69,0-60.11,26.35-60.11,67.86,0,23.25,7.75,43.06,21.19,54.94,10,8.61,22.91,12.74,39.27,12.74a99.58,99.58,0,0,0,25.66-3.27c7.92-2.24,13.09-4.65,23.42-10.68a110.38,110.38,0,0,1-1.21-19.11V683.33a118.09,118.09,0,0,1,1.21-19.46,177.47,177.47,0,0,1-18.26.69h-5c-9.3,0-13.61-.17-18.77-1v14c4.82-.86,8.78-1,17.74-1Zm-248.53-77a125.05,125.05,0,0,1,1.2,19.46v92a128,128,0,0,1-1.2,19.46h15.33a128.61,128.61,0,0,1-1.21-19.29V696.6l14.64-14L1218.51,714c8.61,11.54,9,12.23,10.85,16.36H1249c-3.79-3.79-4.65-4.82-15-18.09l-29.11-37.54,23.94-22.22a38.79,38.79,0,0,1,2.76-2.75c2.41-2.41,4.48-4.31,6.2-5.86,4.65-4.13,4.65-4.13,7.06-6.37h-20.5c-2.41,3.62-4.82,6.55-12.23,13.61L1181,681.26V618.92a123.54,123.54,0,0,1,1.21-19.46ZM1134.36,662a46.58,46.58,0,0,0-6-11c-7.41-10.33-18.94-15.84-33.24-15.84-26.35,0-43.58,19.46-43.58,49.26,0,29.45,17.4,48.23,44.44,48.23,14,0,25-5,32.55-14.47,2.93-3.79,4.65-7.06,7.06-13.26l-12.92-3.44a27.92,27.92,0,0,1-3.79,8.78c-4.48,7.06-12.57,11-22.39,11-19.29,0-31.69-14.47-31.69-37.2,0-23.08,12.05-37.89,31-37.89,12.75,0,21,6.37,26,19.81ZM1003.7,637.52a126.38,126.38,0,0,1,1.2,19.46v53.91a149.49,149.49,0,0,1-1.2,19.46h15.5a135.13,135.13,0,0,1-1.21-19.46V657a123,123,0,0,1,1.21-19.46Zm-.52-38.06v15.33h16.71V599.46Zm-51.26,0a124,124,0,0,1,1.2,19.29v92.32a130,130,0,0,1-1.2,19.29h15.5a136.46,136.46,0,0,1-1.2-19.29V618.92a124.92,124.92,0,0,1,1.2-19.46ZM918.07,632.7c-4.13-10.68-7.41-15.85-13.44-21.7-9.3-9.3-22.39-14-38.58-14-16.36,0-29.45,5-39.44,14.64C813.87,624.26,807,643,807,665.25c0,21.53,6.55,40.3,18.6,52.36,9.82,10,23.77,15.15,40.3,15.15,19.29,0,35-7.06,44.61-20,4.13-5.51,6.37-10.33,9.3-20.5l-14.29-3.44c-1.55,7.92-3.27,12.23-6.89,17.22-7.06,9.3-18.6,14.47-32.21,14.47-27.73,0-45.47-21.7-45.47-55.8,0-34.28,17.57-55.63,45.47-55.63,12.57,0,22.91,4.31,29.8,12.4,3.62,4.13,5.51,7.75,8.1,15.16ZM706.81,675.07c1-6.55,1.89-9.65,4.3-14,5.17-9.65,14-15,24.46-15,8.27,0,15,2.58,20.33,7.75,5.51,5.34,8.09,11.54,9.13,21.19Zm72,10.85c-.35-4.65-1-11.37-1.21-13.26-3.44-23.08-19.46-37.37-41.68-37.37-25.84,0-42.71,19.29-42.71,48.74,0,29.8,17.05,48.74,44.09,48.74,12.57,0,23.08-4.13,31.17-12.06,4-4,6.2-7.06,9.47-14.29l-12.05-4.82c-4.82,13.26-14.47,20.15-28.42,20.15-10.33,0-18.77-4.13-24.28-11.71-4.65-6.2-6.37-12.57-6.89-24.11Z"/><path class="cls-3" d="M1641.49,342.89c-.26,13.29-.8,25.25-2.13,36.14H1574v13.29h63.51c-8,47-28.17,75.47-62.18,98.06l7.44,10.9c35.08-23.65,57.13-52.62,66.7-99.39l59.26,100.72,11.42-6.91L1659.3,392.32h61.39V379h-67.76c1.33-11.16,1.86-23.12,2.12-36.14Zm-76,184.68a18,18,0,0,1-17.8-18.07V334.39a18,18,0,0,1,17.8-18.07h161a18.26,18.26,0,0,1,18.07,18.07V509.51a18.26,18.26,0,0,1-18.07,18.07Zm161,13.29a31.76,31.76,0,0,0,31.36-31.36V334.39A31.76,31.76,0,0,0,1726.53,303h-161c-17.27,0-31.09,14.35-31.09,31.36V509.51c0,17,13.82,31.36,31.09,31.36ZM1302.15,328.28h130.47V351.4H1302.15Zm0,36.67h130.47v24.18H1302.15Zm0,37.47h130.47v24.45H1302.15Zm58.73,55v19.66h-89.55v13.29h89.55v38h-110v13.29h233.58V528.38H1374.16v-38h89.55V477.09h-89.55V457.42Zm71.75-160V315H1302.15V297.45h-13.29V315h-35.61v13.29h35.61v98.59h-38v13.29h41.19c-11.43,13.55-25.78,23.38-43.32,30l5.05,12.23c23.92-8.77,42-22.33,55.54-42.25h115.07l51.28,42.52,8.5-10.37-38.8-32.15h39.06V426.86h-38.53V328.28h35.61V315h-35.61V297.45ZM1063.25,541.66V484H1050v57.66Zm61.12,0V484h-13.29v57.66ZM979,541.4l26.58-56.6-12-6.11-26.57,56.87Zm228.27-5.85-27.9-56.87-12,6.11,27.9,56.6Zm-199.83-83.71a13.28,13.28,0,0,1-13.29-13V401.09a13.27,13.27,0,0,1,13.29-13h163.69a13,13,0,0,1,13,13v37.73a13,13,0,0,1-13,13Zm41.72-154.13v77.06h-41.72c-14.88,0-26.57,11.43-26.57,26.31v37.73c0,14.08,12,26.31,26.57,26.31h163.69c14.61,0,26.57-12.22,26.57-26.31V401.09c0-14.88-11.69-26.31-26.57-26.31H1062.45V334.12h135.26V320.84H1062.45V297.72ZM754.73,388.07A18.26,18.26,0,0,1,736.66,370V358.84H889.19V370a18.26,18.26,0,0,1-18.07,18.07Zm-18.07-54.74a18.26,18.26,0,0,1,18.07-18.07H871.12a18.26,18.26,0,0,1,18.07,18.07v12.22H736.66Zm129.42,208.6h21.26c18.07,0,32.42-13.82,32.42-30.82V455.83c0-17.27-14.35-31.09-32.42-31.09H721l6.64-18.33-12.49-4.52L702.38,438h59.79c-7.17,39.33-29.76,70.42-67,93l6.91,11.43c41.72-25.51,66.17-60.05,73.34-104.43h53.41c-3.72,38.27-17,69.89-46,93.54l8.51,10.36c32.68-26.57,47-61.12,51-103.9h44.91c10.36,0,19.13,8,19.13,17.8V511.1c0,9.56-8.77,17.53-19.13,17.53H866.08Zm5-140.57A31.76,31.76,0,0,0,902.48,370V333.33A31.76,31.76,0,0,0,871.12,302H754.73a31.76,31.76,0,0,0-31.36,31.36V370a31.76,31.76,0,0,0,31.36,31.36Z"/></svg>